<svg viewBox="0 0 30 30.0001" xmlns="http://www.w3.org/2000/svg" xmlns:xlink="http://www.w3.org/1999/xlink" width="30.000000" height="30.000122" fill="none" customFrame="#000000">
	<g id="Group">
		<g id="Group">
			<path id="Vector" d="M23.5037 4.81212L28.5355 4.81212C28.665 4.81212 28.7894 4.86203 28.8808 4.95074C28.9723 5.03945 29.0237 5.16013 29.0237 5.2858L29.0237 28.5791C29.0236 28.7047 28.9723 28.8252 28.8808 28.9141C28.7892 29.0029 28.665 29.0528 28.5355 29.0528L9.41429 29.0528C9.28482 29.0527 9.16065 29.0029 9.06899 28.9141C8.97756 28.8252 8.92618 28.7047 8.92614 28.5791L8.92614 27.6481C8.92614 27.3867 8.70745 27.1745 8.43798 27.1745C8.16851 27.1745 7.94983 27.3867 7.94983 27.6481L7.94983 28.5791C7.94983 28.9558 8.10408 29.3174 8.37875 29.5839C8.65342 29.8504 9.02606 30.0001 9.41429 30.0001L28.5355 30.0001C28.7279 30.0002 28.9183 29.9634 29.096 29.892C29.2737 29.8206 29.4351 29.7159 29.5711 29.5839C29.7071 29.452 29.815 29.2953 29.8886 29.1229C29.9622 28.9505 30.0001 28.7657 30 28.5791L30 5.2858C30.0001 5.09917 29.9623 4.91435 29.8887 4.74192C29.8151 4.56949 29.7071 4.41285 29.5711 4.28096C29.4351 4.14896 29.2737 4.04425 29.096 3.97284C28.9183 3.90142 28.7279 3.86469 28.5355 3.86475L23.5037 3.86475C23.2342 3.86475 23.0155 4.07695 23.0155 4.33843C23.0155 4.59958 23.2342 4.81212 23.5037 4.81212Z" fill="rgb(254,102,4)" fill-rule="evenodd" />
			<path id="Vector" d="M21.5621 8.49473L25.4455 8.49473C25.715 8.49473 25.9337 8.28253 25.9337 8.02105C25.9337 7.75957 25.715 7.54736 25.4455 7.54736L21.5621 7.54736C21.2927 7.54736 21.074 7.75957 21.074 8.02105C21.074 8.28253 21.2927 8.49473 21.5621 8.49473ZM21.5621 11.257L25.4455 11.257C25.715 11.257 25.9337 11.0448 25.9337 10.7833C25.9337 10.5218 25.715 10.3096 25.4455 10.3096L21.5621 10.3096C21.2927 10.3096 21.074 10.5218 21.074 10.7833C21.074 11.0448 21.2927 11.257 21.5621 11.257ZM21.5621 16.7817L25.4455 16.7817C25.715 16.7817 25.9337 16.5695 25.9337 16.308C25.9337 16.0468 25.715 15.8343 25.4455 15.8343L21.5621 15.8343C21.2927 15.8343 21.074 16.0468 21.074 16.308C21.074 16.5695 21.2927 16.7817 21.5621 16.7817ZM21.5621 14.0195L25.4455 14.0195C25.715 14.0195 25.9337 13.8073 25.9337 13.5458C25.9337 13.2843 25.715 13.0721 25.4455 13.0721L21.5621 13.0721C21.2927 13.0721 21.074 13.2843 21.074 13.5458C21.074 13.8073 21.2927 14.0195 21.5621 14.0195Z" fill="rgb(254,102,4)" fill-rule="evenodd" />
			<path id="Vector" d="M0.000305526 1.42106L0.000305526 24.7143C0.000172334 24.901 0.03799 25.0858 0.111592 25.2582C0.185194 25.4306 0.293134 25.5873 0.429227 25.7192C0.565184 25.8512 0.726621 25.9559 0.904307 26.0273C1.08199 26.0987 1.27244 26.1354 1.46477 26.1354L20.586 26.1354C20.9744 26.1354 21.3469 25.9856 21.6215 25.7192C21.7576 25.5872 21.8655 25.4306 21.9391 25.2582C22.0127 25.0858 22.0505 24.9009 22.0505 24.7143L22.0505 1.42106C22.0505 1.04433 21.8962 0.682737 21.6215 0.416209C21.3469 0.149682 20.9742 4.85548e-08 20.586 4.85548e-08L1.46472 4.85548e-08C1.2724 -4.87496e-05 1.08196 0.036685 0.904284 0.108101C0.726607 0.179517 0.565178 0.284215 0.429227 0.416209C0.293185 0.548129 0.185278 0.704779 0.11168 0.877201C0.0380814 1.04962 0.00023505 1.23443 0.000305526 1.42106ZM0.976614 1.42106C0.97666 1.29543 1.02803 1.17494 1.11947 1.086C1.21109 0.997212 1.33529 0.947353 1.46477 0.947372L20.586 0.947372C20.7155 0.947417 20.8396 0.997266 20.9313 1.086C21.0227 1.17494 21.0741 1.29543 21.0742 1.42106L21.0742 24.7143C21.0742 24.84 21.0228 24.9605 20.9313 25.0494C20.8396 25.1381 20.7155 25.188 20.586 25.188L1.46477 25.188C1.33529 25.188 1.2111 25.1382 1.11947 25.0494C1.02798 24.9605 0.976594 24.84 0.976614 24.7143L0.976614 1.42106Z" fill="rgb(254,102,4)" fill-rule="evenodd" />
			<path id="Vector" d="M0.488276 18.4215L7.46169 18.4215C7.59116 18.4215 7.71533 18.4714 7.80699 18.5601C7.89843 18.6491 7.9498 18.7695 7.94985 18.8952L7.94985 25.6619C7.94985 25.9234 8.16853 26.1356 8.438 26.1356C8.70747 26.1356 8.92616 25.9234 8.92616 25.6619L8.92616 18.8952C8.92616 18.5181 8.7719 18.1569 8.49723 17.8903C8.22257 17.6238 7.85028 17.4741 7.46169 17.4741L0.488276 17.4741C0.218807 17.4741 0.00012207 17.6863 0.00012207 17.9478C0.00012207 18.2093 0.218807 18.4215 0.488276 18.4215Z" fill="rgb(254,102,4)" fill-rule="evenodd" />
			<path id="Vector" d="M0.14302 18.2824L8.09274 25.9965C8.28344 26.1816 8.59259 26.1816 8.78334 25.9965C8.97373 25.8118 8.97373 25.5115 8.78334 25.3268L0.833263 17.6124C0.64287 17.4276 0.333413 17.4276 0.14302 17.6124C-0.0476733 17.7974 -0.0476733 18.0974 0.14302 18.2824ZM10.9412 4.78467L4.47063 4.78467C4.20116 4.78467 3.98247 4.99687 3.98247 5.25835C3.98247 5.51984 4.20116 5.73204 4.47063 5.73204L10.9412 5.73204C11.2104 5.73204 11.4294 5.51984 11.4294 5.25835C11.4294 4.99687 11.2104 4.78467 10.9412 4.78467ZM17.4116 7.54719L4.47063 7.54719C4.20116 7.54719 3.98247 7.75939 3.98247 8.02087C3.98247 8.28236 4.20116 8.49456 4.47063 8.49456L17.4116 8.49456C17.681 8.49456 17.8997 8.28236 17.8997 8.02087C17.8997 7.75939 17.681 7.54719 17.4116 7.54719ZM10.9412 13.0719L4.47063 13.0719C4.20116 13.0719 3.98247 13.2841 3.98247 13.5456C3.98247 13.8071 4.20116 14.0193 4.47063 14.0193L10.9412 14.0193C11.2104 14.0193 11.4294 13.8071 11.4294 13.5456C11.4294 13.2841 11.2104 13.0719 10.9412 13.0719ZM17.4116 13.0719L13.8279 13.0719C13.5588 13.0719 13.3397 13.2841 13.3397 13.5456C13.3397 13.8071 13.5588 14.0193 13.8279 14.0193L17.4116 14.0193C17.681 14.0193 17.8997 13.8071 17.8997 13.5456C17.8997 13.2841 17.681 13.0719 17.4116 13.0719ZM17.4116 20.0809L12.4087 20.0809C12.1392 20.0809 11.9205 20.2931 11.9205 20.5545C11.9205 20.816 12.1392 21.0282 12.4087 21.0282L17.4116 21.0282C17.681 21.0282 17.8997 20.816 17.8997 20.5545C17.8997 20.2931 17.681 20.0809 17.4116 20.0809ZM17.4116 10.3094L4.47063 10.3094C4.20116 10.3094 3.98247 10.5216 3.98247 10.7831C3.98247 11.0446 4.20116 11.2568 4.47063 11.2568L17.4116 11.2568C17.681 11.2568 17.8997 11.0446 17.8997 10.7831C17.8997 10.5216 17.681 10.3094 17.4116 10.3094Z" fill="rgb(254,102,4)" fill-rule="evenodd" />
		</g>
	</g>
</svg>
